<svg width="150" height="125" viewBox="0 0 150 125" fill="none" xmlns="http://www.w3.org/2000/svg">
<g clip-path="url(#clip0)">
<path d="M58.5938 70.3129H25.7812C19.5117 70.3129 16.377 76.6117 20.8008 80.3227L30.4395 87.891L1.37695 112.134C-0.439453 113.648 -0.439453 116.138 1.37695 117.652L8.81836 123.853C10.6348 125.367 13.623 125.367 15.4395 123.853L44.5312 99.6098L53.6426 107.666C58.0664 111.353 65.625 108.741 65.625 103.516V76.1723C65.625 72.9252 62.4902 70.3129 58.5938 70.3129ZM91.4062 54.6879H124.219C130.488 54.6879 133.623 48.3647 129.199 44.6781L119.531 37.1098L148.623 12.8666C150.439 11.3529 150.439 8.8627 148.623 7.34903L141.182 1.14786C139.365 -0.365817 136.377 -0.365817 134.561 1.14786L105.469 25.391L96.3574 17.3344C91.9336 13.6479 84.375 16.2602 84.375 21.4848V48.8285C84.375 52.0756 87.5098 54.6879 91.4062 54.6879ZM119.531 87.891L129.199 80.2982C133.623 76.6117 130.488 70.3129 124.219 70.3129H91.4062C87.5098 70.3129 84.375 72.9252 84.375 76.1723V103.516C84.375 108.741 91.9629 111.353 96.3867 107.666L105.469 99.6342L134.561 123.877C136.377 125.391 139.365 125.391 141.182 123.877L148.623 117.676C150.439 116.163 150.439 113.672 148.623 112.159L119.531 87.891ZM53.6133 17.3588L44.5312 25.391L15.4395 1.14786C13.623 -0.365817 10.6348 -0.365817 8.81836 1.14786L1.37695 7.34903C-0.439453 8.8627 -0.439453 11.3529 1.37695 12.8666L30.4688 37.1098L20.8008 44.7025C16.377 48.3891 19.5117 54.6879 25.7812 54.6879H58.5938C62.4902 54.6879 65.625 52.0756 65.625 48.8285V21.4848C65.625 16.2846 58.0371 13.6723 53.6133 17.3588Z" fill="black"/>
</g>
<defs>
<clipPath id="clip0">
<rect width="150" height="125" fill="white"/>
</clipPath>
</defs>
</svg>
