<svg width="92" height="68" viewBox="0 0 92 68" fill="none" xmlns="http://www.w3.org/2000/svg">
<path d="M86.6667 0.25H5.33333C2.52225 0.25 0.25 1.93 0.25 4V64C0.25 66.07 2.52225 67.75 5.33333 67.75H49.1263V41.65H37.2414V31.4312H49.1263V23.9312C49.1263 15.2125 56.3446 10.4613 66.9179 10.4613C70.4712 10.4538 74.0295 10.5887 77.5675 10.8625V19.9375H70.2729C64.5389 19.9375 63.4206 21.955 63.4206 24.9062V31.4125H77.1303L75.3512 41.6312H63.4155V67.75H86.6667C89.4778 67.75 91.75 66.07 91.75 64V4C91.75 1.93 89.4778 0.25 86.6667 0.25Z" fill="black"/>
</svg>
