<svg width="156" height="120" viewBox="0 0 156 120" fill="none" xmlns="http://www.w3.org/2000/svg">
<g clip-path="url(#clip0)">
<path d="M32.2975 84.3781V84.376C32.2975 83.9336 32.69 83.501 33.2475 83.501H122.85C123.408 83.501 123.8 83.9336 123.8 84.376V95.626C123.8 96.0683 123.408 96.501 122.85 96.501H33.2231C32.6662 96.501 32.274 96.0693 32.2731 95.6275C32.2731 95.627 32.2731 95.6265 32.2731 95.626L32.2975 84.3781ZM32.2244 106.878V106.876C32.2244 106.434 32.6168 106.001 33.1744 106.001H122.85C123.408 106.001 123.8 106.434 123.8 106.876V118.126C123.8 118.568 123.408 119.001 122.85 119.001H33.15C32.5926 119.001 32.2002 118.569 32.2 118.126C32.2 118.126 32.2 118.126 32.2 118.126L32.2244 106.878ZM32.3463 61.8781V61.876C32.3463 61.4336 32.7387 61.001 33.2963 61.001H122.85C123.408 61.001 123.8 61.4336 123.8 61.876V73.126C123.8 73.5683 123.408 74.001 122.85 74.001H33.2719C32.7145 74.001 32.3221 73.5686 32.3219 73.1263C32.3219 73.1262 32.3219 73.1261 32.3219 73.126L32.3463 61.8781ZM77.9878 1.00681C79.405 1.00681 80.8075 1.27562 82.1145 1.79698L148.434 28.3497C148.435 28.3499 148.435 28.3502 148.436 28.3505C152.417 29.9644 155 33.6892 155 37.8057V118.126C155 118.568 154.608 119.001 154.05 119.001H134.55C133.992 119.001 133.6 118.568 133.6 118.126V60.001C133.6 55.2714 129.54 51.501 124.654 51.501H31.3463C26.4603 51.501 22.4 55.2714 22.4 60.001V118.126C22.4 118.568 22.0075 119.001 21.45 119.001H1.95C1.39246 119.001 1 118.568 1 118.126V37.8057C1 33.689 3.583 29.9641 7.56455 28.3503C7.56507 28.3501 7.5656 28.3499 7.56612 28.3497L73.8611 1.79698C73.8614 1.79689 73.8616 1.79679 73.8618 1.7967C75.1687 1.27553 76.5709 1.00681 77.9878 1.00681Z" fill="#4F6272" stroke="black" stroke-width="2"/>
</g>
<defs>
<clipPath id="clip0">
<rect width="156" height="120" fill="white"/>
</clipPath>
</defs>
</svg>
