<svg width="300" height="300" viewBox="0 0 300 300" fill="none" xmlns="http://www.w3.org/2000/svg">
<path d="M221.575 162.75L175 200H112.5V187.5H163.313C168.3 187.5 171.288 181.937 168.513 177.787L157.413 161.137C152.788 154.175 144.988 150 136.625 150H112.5H37.5C30.5875 150 25 155.588 25 162.5V237.5C25 251.3 36.2 262.5 50 262.5H170.488C181.3 262.5 191.588 257.837 198.713 249.7L275 162.5L256.85 156.45C244.788 152.425 231.513 154.8 221.575 162.75ZM240.725 92.375C246.363 86.5625 249.85 78.525 249.85 69.65C249.85 60.775 246.363 52.7375 240.725 46.925C235.088 41.1 227.288 37.5 218.675 37.5C218.675 37.5 203.125 37.4625 187.5 53.575C171.875 37.4625 156.325 37.5 156.325 37.5C147.713 37.5 139.913 41.1 134.275 46.9125C128.638 52.7375 125.15 60.7625 125.15 69.6375C125.15 78.5125 128.638 86.5625 134.275 92.3625L187.5 150L240.725 92.375Z" fill="#BDD358"/>
</svg>
