<svg width="92" height="68" viewBox="0 0 92 68" fill="none" xmlns="http://www.w3.org/2000/svg">
<path d="M91.4806 20.1437C91.4247 17.305 90.713 14.4887 89.3507 11.8337C86.9666 7.29996 82.112 3.71496 75.9663 1.95996C72.413 0.973712 68.6564 0.444961 64.8541 0.384961C59.9639 0.223711 58.4135 0.178711 46 0.178711C33.5865 0.178711 31.9954 0.178711 27.1408 0.384961C23.3436 0.444961 19.587 0.973712 16.0337 1.95996C9.88799 3.71496 5.02832 7.29996 2.64932 11.8337C1.31241 14.455 0.590575 17.2262 0.519408 20.0275C0.300825 23.6387 0.234741 24.7825 0.234741 33.94C0.234741 43.0975 0.234741 44.2675 0.519408 47.8525C0.595658 50.6575 1.31241 53.425 2.64932 56.0537C5.03341 60.5837 9.88799 64.1687 16.0388 65.9237C19.5768 66.9437 23.3334 67.5212 27.1459 67.6112C32.0412 67.7725 33.5916 67.8212 46.0051 67.8212C58.4186 67.8212 60.0097 67.8212 64.8643 67.6112C68.6615 67.555 72.4181 67.0262 75.9764 66.04C82.1222 64.2812 86.9768 60.6962 89.3608 56.1662C90.6978 53.5412 91.4145 50.7737 91.4908 47.965C91.7093 44.3575 91.7754 43.2137 91.7754 34.0525C91.7653 24.895 91.7653 23.7325 91.4806 20.1437ZM45.9695 51.2575C32.9867 51.2575 22.4692 43.4987 22.4692 33.9212C22.4692 24.3437 32.9867 16.585 45.9695 16.585C58.9422 16.585 69.4698 24.3437 69.4698 33.9212C69.4698 43.4987 58.9422 51.2575 45.9695 51.2575ZM70.4051 19.9862C67.3703 19.9862 64.9252 18.1787 64.9252 15.9437C64.9252 13.7087 67.3703 11.9012 70.4051 11.9012C73.4297 11.9012 75.8798 13.7087 75.8798 15.9437C75.8798 18.1787 73.4297 19.9862 70.4051 19.9862Z" fill="black"/>
</svg>
