<svg width="50" height="51" viewBox="0 0 50 51" fill="none" xmlns="http://www.w3.org/2000/svg">
<path d="M47.4085 0.949575C46.9223 -0.271128 45.5335 -0.319956 44.9519 0.832387C42.2609 6.09606 37.4432 9.37731 31.9397 9.37731H24.9953C15.7939 9.37731 8.32858 17.7757 8.32858 28.1273C8.32858 28.8109 8.39803 29.4652 8.45879 30.1293C13.997 25.6664 21.9918 21.8773 33.3286 21.8773C34.0925 21.8773 34.7175 22.5804 34.7175 23.4398C34.7175 24.2992 34.0925 25.0023 33.3286 25.0023C11.5057 25.0023 2.2522 40.0511 0.203584 45.7054C-0.369333 47.2972 0.307751 49.1136 1.72268 49.7679C3.14629 50.432 4.76088 49.6605 5.35115 48.0785C5.48136 47.7269 7.16539 43.4007 11.5925 39.2308C14.405 43.5179 19.7522 47.6097 26.7748 46.7699C40.4032 45.6566 49.9953 31.9066 49.9953 15.0707C49.9953 10.1683 49.0578 5.0902 47.4085 0.949575Z" fill="#1B4332"/>
</svg>
