<svg width="200" height="160" viewBox="0 0 200 160" fill="none" xmlns="http://www.w3.org/2000/svg">
<rect width="200" height="160" rx="80" fill="white"/>
<path d="M162.25 39.9688L147.375 25.0938C144.083 21.8307 139.635 20 135 20H64.125C59.5 20 55.0312 21.8438 51.75 25.0938L36.875 39.9688H0V119.875H20C25.5 119.875 29.9375 115.438 29.9688 109.969H32.8125L59.25 133.844C68.9062 141.688 82.3125 141.875 92.25 135.031C96.1562 138.406 100.375 140 105.094 140C110.781 140 116.125 137.688 120.344 132.5C127.25 135.219 135.406 133.312 140.344 127.25L148.531 117.156C150.281 115 151.375 112.531 151.938 109.969H170.031C170.062 115.438 174.531 119.875 180 119.875H200V39.9688H162.25ZM15 109.875C12.25 109.875 10 107.625 10 104.875C10 102.125 12.25 99.875 15 99.875C17.75 99.875 20 102.125 20 104.875C20 107.656 17.75 109.875 15 109.875ZM136.875 107.719L128.719 117.781C127.844 118.844 126.281 119.031 125.188 118.156L117.719 112.094L108.344 123.5C106.469 125.781 103.656 125 102.719 124.25L91.2188 114.406L86.3438 120.406C82 125.75 74.0938 126.562 69.0625 122.469L38.6562 94.9688H30V54.9375H43.0938L62.375 35.6875C63 35.4375 63.5312 35.2188 64.1562 34.9688H81.875L69.7812 46.0625C60.5938 54.4687 60.0625 68.6562 68.4062 77.7188C73.0312 82.7812 87.5312 90.5938 100.125 79.0938L102.688 76.75L136.5 104.188C137.562 105.062 137.719 106.656 136.875 107.719ZM170 94.9688H148.375C147.656 94.0938 146.844 93.2812 145.969 92.5625L113.875 66.5L117.781 62.9375C119.812 61.0625 119.969 57.9062 118.094 55.875L114.688 52.2188C112.812 50.1875 109.656 50.0625 107.625 51.9063L90.375 67.7188C87.4062 70.4375 82.3438 70.6562 79.5625 67.7188C76.6562 64.625 76.9062 59.875 79.9375 57.125L100.438 38.3438C102.75 36.2187 105.75 35.0625 108.875 35.0625L135.031 35C135.688 35 136.312 35.25 136.75 35.7188L156.031 54.9688H170V94.9688ZM185 109.875C182.25 109.875 180 107.625 180 104.875C180 102.125 182.25 99.875 185 99.875C187.75 99.875 190 102.125 190 104.875C190 107.656 187.75 109.875 185 109.875Z" fill="#048A81"/>
</svg>
