<svg width="190" height="130" viewBox="0 0 190 130" fill="none" xmlns="http://www.w3.org/2000/svg">
<g clip-path="url(#clip0)">
<path d="M160.5 39.0625V40.0625H161.5H180.5C185.386 40.0625 189 43.2874 188.997 46.8743V46.875V59.2676C188.997 61.0052 188.16 62.721 186.58 64.0201L171.945 76.0554C167.313 74.288 162.204 73.2212 156.75 73.2212C145.045 73.2212 134.692 77.8265 127.975 84.9399H104.5H103.5V85.9399V87.4048C103.5 89.6448 101.215 91.7759 97.9688 91.7759H95.8431H95.1419L94.9029 92.4352C94.0551 94.7751 92.9123 97.0398 91.4709 99.2395L90.9791 99.99L91.6722 100.56L93.1744 101.795C94.2379 102.67 94.7222 103.769 94.7222 104.821C94.7222 105.872 94.2379 106.971 93.1744 107.846L83.9386 115.441C81.7575 117.235 78.1542 117.235 75.9732 115.441L74.471 114.206L73.9946 113.814L73.4306 114.064C70.7355 115.258 67.9533 116.208 65.0715 116.914L64.3095 117.101V117.886V119.629C64.3095 121.869 62.0249 124 58.7783 124H45.7158C42.4692 124 40.1845 121.869 40.1845 119.629V117.883V117.099L39.4225 116.912C36.5408 116.206 33.7586 115.256 31.0634 114.061L30.4995 113.811L30.0231 114.203L28.5209 115.439C26.3398 117.232 22.7366 117.232 20.5555 115.439L11.3197 107.843C10.2561 106.969 9.77192 105.869 9.77192 104.818C9.77192 103.767 10.2561 102.667 11.3197 101.793L12.8219 100.557L13.5146 99.9878L13.0234 99.2375C11.5821 97.0355 10.4419 94.7728 9.59086 92.4296L9.35165 91.771H8.65094H6.53125C3.28468 91.771 1 89.6399 1 87.3999V76.6577C1 74.4177 3.28468 72.2866 6.53125 72.2866H8.65391H9.35519L9.59409 71.6273C10.4419 69.2874 11.5847 67.0226 13.0261 64.823L13.5179 64.0724L12.8249 63.5025L11.3227 62.2672C10.2591 61.3925 9.77488 60.293 9.77488 59.2419C9.77488 58.1908 10.2591 57.0913 11.3227 56.2167L20.5585 48.6215C22.5471 46.9861 25.7291 46.9012 27.9602 48.332L29.5 49.3195V47.4902V11.7187C29.5 5.98264 35.2522 0.999975 42.75 0.999975L82.368 0.999975L82.3688 0.999975C85.0027 0.997839 87.5678 1.63379 89.7429 2.8149C91.9177 3.99588 93.5895 5.65945 94.5811 7.5741L94.5823 7.57643L111.234 39.5247L111.514 40.0625H112.121H142.5H143.5V39.0625V29.248C143.5 22.2214 146.513 15.4114 151.962 10.0068L151.962 10.0066C153.491 8.48942 156.344 8.39871 157.914 9.84238L157.914 9.84274L164.335 15.7436L164.336 15.7444C165.452 16.7676 165.537 18.1506 164.67 19.0859C162.009 21.9562 160.5 25.5231 160.5 29.248V39.0625ZM46.5 39.0625V40.0625H47.5H58.7813H91.4494H93.0983L92.3362 38.6003L80.1198 15.1628L79.8394 14.625H79.233H47.5H46.5V15.625V39.0625ZM131.625 103.516C131.625 92.3767 142.682 83.0312 156.75 83.0312C170.818 83.0312 181.875 92.3767 181.875 103.516C181.875 114.655 170.818 124 156.75 124C142.682 124 131.625 114.655 131.625 103.516ZM148.625 103.516C148.625 107.472 152.462 110.375 156.75 110.375C161.038 110.375 164.875 107.472 164.875 103.516C164.875 99.5593 161.038 96.6562 156.75 96.6562C152.462 96.6562 148.625 99.5593 148.625 103.516ZM27.5 82.0312C27.5 93.5437 38.7736 102.562 52.25 102.562C65.7264 102.562 77 93.5437 77 82.0312C77 70.5188 65.7264 61.5 52.25 61.5C38.7736 61.5 27.5 70.5188 27.5 82.0312Z" fill="#764134" stroke="black" stroke-width="2"/>
</g>
<defs>
<clipPath id="clip0">
<rect width="190" height="130" fill="white"/>
</clipPath>
</defs>
</svg>
