<svg width="50" height="40" viewBox="0 0 50 40" fill="none" xmlns="http://www.w3.org/2000/svg">
<g clip-path="url(#clip0)">
<path d="M41.25 26.25C37.4531 26.25 34.375 29.3281 34.375 33.125C34.375 36.9219 37.4531 40 41.25 40C45.0469 40 48.125 36.9219 48.125 33.125C48.125 29.3281 45.0469 26.25 41.25 26.25ZM41.25 35C40.2164 35 39.375 34.1586 39.375 33.125C39.375 32.0914 40.2164 31.25 41.25 31.25C42.2836 31.25 43.125 32.0914 43.125 33.125C43.125 34.1586 42.2836 35 41.25 35ZM47.5 12.5H42.5V9.35938C42.5 8.25625 42.8672 7.19063 43.5273 6.325C43.8727 5.87188 43.8047 5.22656 43.4242 4.80235L41.7344 2.91406C41.2141 2.33203 40.3031 2.37344 39.8047 2.975C38.3266 4.75781 37.5 7.01641 37.5 9.35938V12.5H29.5055L25.1234 2.27656C24.8356 1.60065 24.3552 1.02438 23.7421 0.619566C23.1291 0.214748 22.4104 -0.000722596 21.6758 1.82063e-06H11.25C9.18203 1.82063e-06 7.5 1.68203 7.5 3.75V15.1969C6.82578 14.6711 5.8625 14.6922 5.24297 15.3117L2.8125 17.7422C2.14141 18.4133 2.14141 19.5016 2.8125 20.1727L3.20781 20.568C2.81797 21.2914 2.50781 22.0383 2.27734 22.8117H1.71875C0.769531 22.8117 0 23.5813 0 24.5305V27.968C0 28.9172 0.769531 29.6867 1.71875 29.6867H2.27656C2.50781 30.4609 2.81719 31.207 3.20703 31.9313L2.81172 32.3266C2.14062 32.9977 2.14062 34.0859 2.81172 34.757L5.24219 37.1875C5.91328 37.8586 7.00156 37.8586 7.67266 37.1875L8.06797 36.7922C8.79141 37.182 9.53828 37.4922 10.3117 37.7227V38.2813C10.3117 39.2305 11.0813 40 12.0305 40H15.468C16.4172 40 17.1867 39.2305 17.1867 38.2813V37.7234C17.9602 37.493 18.707 37.1828 19.4305 36.793L19.8258 37.1883C20.4969 37.8594 21.5852 37.8594 22.2563 37.1883L24.6867 34.7578C25.3578 34.0867 25.3578 32.9984 24.6867 32.3273L24.2914 31.932C24.6812 31.2086 24.9914 30.4617 25.2219 29.6883H25.7812C26.7305 29.6883 27.5 28.9188 27.5 27.9695V27.5008H33.7922C35.5039 25.2359 38.1922 23.7508 41.25 23.7508C42.7062 23.7508 44.068 24.1109 45.2969 24.7039L49.2672 20.7336C49.7359 20.2648 49.9992 19.6289 49.9992 18.9656V15C50 13.6195 48.8805 12.5 47.5 12.5ZM13.75 32.5C10.2984 32.5 7.5 29.7016 7.5 26.25C7.5 22.7984 10.2984 20 13.75 20C17.2016 20 20 22.7984 20 26.25C20 29.7016 17.2016 32.5 13.75 32.5ZM15.4688 12.5H12.5V5H20.8508L24.0656 12.5H15.4688Z" fill="#FFA552"/>
</g>
<defs>
<clipPath id="clip0">
<rect width="50" height="40" fill="white"/>
</clipPath>
</defs>
</svg>
