<svg width="102" height="60" viewBox="0 0 102 60" fill="none" xmlns="http://www.w3.org/2000/svg">
<path d="M91.4371 14.9888C91.5043 15.645 91.5043 16.2975 91.5043 16.95C91.5043 36.9188 70.5638 59.9288 32.2943 59.9288C20.5039 59.9288 9.55059 57.45 0.333252 53.145C2.00725 53.2838 3.61925 53.3325 5.36042 53.3325C15.0893 53.3325 24.0431 50.9475 31.1989 46.8788C22.0488 46.74 14.3814 42.39 11.7361 36.405C13.0226 36.5438 14.3143 36.6375 15.6679 36.6375C17.5331 36.6375 19.4086 36.45 21.1498 36.1238C11.6069 34.7213 4.46142 28.6425 4.46142 21.3V21.1125C7.23592 22.2338 10.4548 22.935 13.8648 23.0288C8.25892 20.3213 4.58542 15.69 4.58542 10.4513C4.58542 7.64629 5.61359 5.07379 7.41675 2.83129C17.6623 11.9925 33.0641 17.9813 50.3311 18.6375C50.0108 17.5125 49.8144 16.3463 49.8144 15.1763C49.8144 6.85129 59.0938 0.0712891 70.6258 0.0712891C76.6191 0.0712891 82.0286 1.89379 85.8313 4.84129C90.5329 4.18504 95.0383 2.92129 99.0373 1.19254C97.4924 4.69879 94.2013 7.64629 89.8871 9.51754C94.0773 9.18754 98.1383 8.34754 101.869 7.17754C99.0373 10.17 95.4981 12.8363 91.4371 14.9888Z" fill="black"/>
</svg>
