<svg width="63" height="63" viewBox="0 0 63 63" fill="none" xmlns="http://www.w3.org/2000/svg">
<path d="M10.0667 9.78942L10.4123 10.135L10.7657 9.79735C16.1426 4.65889 23.4242 1.4988 31.4449 1.48439C48.0024 1.45474 61.5157 14.9429 61.5156 31.5003C61.5155 48.0772 48.0771 61.5156 31.5 61.5156C23.7627 61.5156 16.7103 58.5887 11.3875 53.7809L11.0523 54.152L11.3875 53.7809C10.9684 53.4025 10.9515 52.7555 11.3466 52.3604L16.2268 47.4802C16.2268 47.4802 16.2268 47.4802 16.2268 47.4802C16.5906 47.1165 17.1732 47.0972 17.5576 47.4344C21.4183 50.8218 26.3183 52.6719 31.5 52.6719C43.3244 52.6719 52.5756 43.094 52.6711 31.6824C52.7718 19.6503 42.9551 10.2283 31.3123 10.3289C25.9662 10.375 20.9316 12.3929 17.0423 16.0346L16.6651 16.3878L17.0305 16.7531L22.1677 21.8903C22.1677 21.8903 22.1677 21.8903 22.1677 21.8903C23.7131 23.4358 22.6186 26.0781 20.433 26.0781H3.9375C2.58266 26.0781 1.48438 24.9799 1.48438 23.625V7.12948C1.48438 4.94396 4.12668 3.84943 5.67218 5.39493L10.0667 9.78942Z" fill="#8B2635" stroke="black"/>
</svg>
