<svg width="80" height="63" viewBox="0 0 80 63" fill="none" xmlns="http://www.w3.org/2000/svg">
<rect width="80" height="63" fill="white"/>
<path d="M19.5 19.6875C19.5 23.7475 16.1438 27.0625 12 27.0625C7.85619 27.0625 4.5 23.7475 4.5 19.6875C4.5 15.6275 7.85619 12.3125 12 12.3125C16.1438 12.3125 19.5 15.6275 19.5 19.6875ZM75.5 19.6875C75.5 23.7475 72.1438 27.0625 68 27.0625C63.8562 27.0625 60.5 23.7475 60.5 19.6875C60.5 15.6275 63.8562 12.3125 68 12.3125C72.1438 12.3125 75.5 15.6275 75.5 19.6875ZM68.1827 46.75C67.3072 41.1814 63.9402 36.4756 59.2164 33.6962C60.5166 32.6365 62.1801 32 64 32H72C76.1438 32 79.5 35.315 79.5 39.375V43.3125C79.5 45.2069 77.9438 46.75 76 46.75H68.1827ZM53.5 17.7188C53.5 25.0518 47.4688 31 40 31C32.5312 31 26.5 25.0518 26.5 17.7188C26.5 10.3857 32.5312 4.4375 40 4.4375C47.4688 4.4375 53.5 10.3857 53.5 17.7188ZM40 37.9062C43.116 37.9062 46.0408 37.1675 48.6742 35.9375H49.6C57.2813 35.9375 63.5 42.0703 63.5 49.6125V53.1562C63.5 56.1335 61.0438 58.5625 58 58.5625H22C18.9562 58.5625 16.5 56.1335 16.5 53.1562V49.6125C16.5 42.0703 22.7187 35.9375 30.4 35.9375H31.3263C33.9706 37.1671 36.8832 37.9062 40 37.9062ZM16 32C17.8199 32 19.4834 32.6365 20.7836 33.6962C16.0594 36.4758 12.6923 41.1817 11.8057 46.75H4C2.05619 46.75 0.5 45.2069 0.5 43.3125V39.375C0.5 35.315 3.85619 32 8 32H16Z" fill="#166088" stroke="black"/>
</svg>
