<svg width="80" height="63" viewBox="0 0 80 63" fill="none" xmlns="http://www.w3.org/2000/svg">
<g clip-path="url(#clip0)">
<path d="M0.973004 19.4272L0.97301 19.4272C22.9198 -0.555416 57.0719 -0.562726 79.0273 19.4272C79.645 19.9897 79.6596 20.9404 79.0592 21.5277L74.7796 25.7073C74.2034 26.2699 73.268 26.2859 72.6639 25.7406L72.6637 25.7405C54.2297 9.11626 25.768 9.12 7.33779 25.7405L7.33762 25.7406C6.73311 26.2862 5.79804 26.2707 5.22223 25.7075L5.22198 25.7073L0.942005 21.5274C0.941998 21.5274 0.941991 21.5274 0.941983 21.5274C0.340746 20.9401 0.355317 19.9896 0.973004 19.4272ZM65.0056 33.4041L65.0057 33.4042C65.6437 33.9593 65.6678 34.9233 65.0559 35.5165L65.0555 35.5169L60.7505 39.6993L60.7502 39.6995C60.1828 40.2515 59.2665 40.2856 58.6665 39.7754C48.0113 30.707 32.0132 30.687 21.3325 39.7754C20.7329 40.2853 19.8163 40.2507 19.2485 39.6992L14.9435 35.5169L14.9434 35.5168C14.3322 34.9234 14.3555 33.9604 14.9946 33.4042L14.9947 33.4041C29.1979 21.0392 50.7864 21.0259 65.0056 33.4041ZM32.5001 51.1875C32.5001 47.1213 35.8501 43.8125 40.0001 43.8125C44.1502 43.8125 47.5001 47.1213 47.5001 51.1875C47.5001 55.2537 44.1502 58.5625 40.0001 58.5625C35.8501 58.5625 32.5001 55.2537 32.5001 51.1875Z" fill="#FFA400" stroke="black"/>
</g>
<defs>
<clipPath id="clip0">
<rect width="80" height="63" fill="white"/>
</clipPath>
</defs>
</svg>
