<svg width="150" height="150" viewBox="0 0 150 150" fill="none" xmlns="http://www.w3.org/2000/svg">
<circle cx="75" cy="75" r="75" fill="#BDD358"/>
<path d="M75 2.34375C33.5776 2.34375 0 34.8721 0 75C0 115.128 33.5776 147.656 75 147.656C116.422 147.656 150 115.128 150 75C150 34.8721 116.422 2.34375 75 2.34375ZM99.8861 107.109C98.7067 108.246 97.4698 109.438 96.4657 110.414C95.5615 111.293 94.9234 112.377 94.5998 113.552C94.1432 115.21 93.7742 116.886 93.1573 118.494L87.8982 132.22C83.7369 133.099 79.4304 133.594 75 133.594V125.572C75.5111 121.875 72.6895 114.949 68.1562 110.558C66.3417 108.8 65.3226 106.415 65.3226 103.928V94.5498C65.3226 91.1396 63.4264 88.0049 60.3448 86.3555C55.999 84.0264 49.8175 80.7715 45.5837 78.7061C42.1119 77.0127 38.9002 74.8564 36.0121 72.334L35.7702 72.123C33.7048 70.317 31.8711 68.277 30.3085 66.0469C27.4718 62.0127 22.8508 55.377 19.8478 51.0645C26.0383 37.7344 37.1946 27.0293 51.0575 21.2139L58.3186 24.7324C61.5363 26.291 65.3226 24.0264 65.3226 20.54V17.2295C67.7389 16.8516 70.1976 16.6113 72.6986 16.5205L81.2571 24.8115C83.1472 26.6426 83.1472 29.6104 81.2571 31.4414L79.8387 32.8125L76.7117 35.8418C75.7682 36.7559 75.7682 38.2412 76.7117 39.1553L78.13 40.5293C79.0736 41.4434 79.0736 42.9287 78.13 43.8428L75.7107 46.1865C75.2564 46.6257 74.6408 46.8723 73.999 46.8721H71.2802C70.6512 46.8721 70.0464 47.1094 69.5927 47.5371L66.5927 50.3643C66.225 50.7112 65.9806 51.1623 65.8947 51.6525C65.8088 52.1428 65.8859 52.6468 66.1149 53.0918L70.8296 62.2295C71.6341 63.7881 70.4637 65.6221 68.6673 65.6221H66.9617C66.378 65.6221 65.8155 65.417 65.377 65.0479L62.5706 62.6865C61.9355 62.1528 61.1679 61.7884 60.3434 61.6291C59.5189 61.4699 58.6658 61.5213 57.8679 61.7783L48.4415 64.8223C47.7219 65.0547 47.096 65.5007 46.6525 66.097C46.209 66.6933 45.9705 67.4096 45.9708 68.1445C45.9708 69.4717 46.745 70.6816 47.9698 71.2764L51.3206 72.8994C54.1663 74.2793 57.3054 74.9971 60.4869 74.9971C63.6684 74.9971 67.3186 82.9922 70.1643 84.3721H90.3508C92.9184 84.3721 95.377 85.3594 97.1946 87.1172L101.335 91.1279C103.064 92.8041 104.036 95.0772 104.035 97.4473C104.035 99.2431 103.668 101.021 102.956 102.679C102.244 104.337 101.201 105.843 99.8861 107.109ZM126.109 80.3467C124.358 79.9219 122.831 78.8818 121.83 77.4258L116.392 69.5244C115.597 68.37 115.172 67.0131 115.172 65.625C115.172 64.2369 115.597 62.88 116.392 61.7256L122.317 53.1182C123.018 52.1016 123.98 51.2754 125.111 50.7305L129.036 48.8291C133.125 56.7158 135.484 65.5869 135.484 75C135.484 77.54 135.26 80.0273 134.933 82.4824L126.109 80.3467Z" fill="#166088"/>
</svg>
